<svg width="69" height="61" viewBox="0 0 69 61" fill="none" xmlns="http://www.w3.org/2000/svg">
<path d="M1 1H2.61771M68 1H66.5845M66.5845 1L65.2644 5.4267C65.0691 6.08146 64.7128 6.67683 64.2282 7.1584V7.1584C63.6973 7.68587 63.0317 8.05749 62.3042 8.23273L62.1368 8.27305C61.5136 8.42314 60.8663 8.44427 60.2347 8.33513L58.0915 7.96481M66.5845 1H2.61771M58.0915 7.96481V7.96481C55.8491 7.56378 53.5617 7.36209 51.2837 7.36209V7.36209M58.0915 7.96481L57.4175 9.83995L56.6761 12.5187L55.3954 16.0681L54.7213 18.412L53.8451 22.4302M52.9688 26.9171L52.2948 30.8014L52.0496 32.1005C51.9504 32.626 51.5892 33.0641 51.0923 33.2615V33.2615C50.7379 33.4024 50.3442 33.4086 49.9856 33.279L49.9097 33.2516C49.3755 33.0586 48.9661 32.6214 48.8085 32.0758L42.6043 10.5948C42.4665 10.1175 42.1198 9.72845 41.6615 9.53673V9.53673C41.3026 9.38661 40.9021 9.3689 40.5314 9.48676L40.4857 9.5013C39.835 9.70819 39.3611 10.2708 39.2679 10.9472L38.7465 14.7287L33.9336 58.0969C33.9073 58.3345 33.8182 58.5608 33.6755 58.7526V58.7526C33.1858 59.4108 32.2265 59.4824 31.6446 58.9042L31.5654 58.8256C31.3274 58.5891 31.1791 58.2771 31.1461 57.9431L28.5684 31.8729M28.0292 26.9171L26.8084 14.7239C26.7703 14.3434 26.5722 13.9969 26.2636 13.771V13.771C25.7898 13.4241 25.1458 13.4241 24.672 13.771L24.6198 13.8092C24.3408 14.0135 24.1449 14.3117 24.0681 14.6489L18.6948 38.2546C18.6282 38.5474 18.4756 38.8135 18.2567 39.0189V39.0189C17.7435 39.5004 16.9654 39.5626 16.3823 39.1687L16.3197 39.1263C15.9236 38.8587 15.6677 38.4282 15.6221 37.9523L14.7804 29.1711C14.6708 28.0277 14.4644 26.8956 14.1635 25.7871L11.8521 17.2736M10.7062 12.5187L9.76258 8.50057M9.76258 8.50057V8.50057C11.9944 7.74664 14.3344 7.36209 16.6901 7.36209H18.5926M9.76258 8.50057H8.47296C7.51232 8.50057 6.57364 8.2132 5.77764 7.67541V7.67541C5.46951 7.46723 5.18653 7.22405 4.93436 6.95074L4.84686 6.8559C4.1801 6.13322 3.70369 5.25596 3.46058 4.30322L2.61771 1M20.8061 51.7268V51.7268C20.9858 50.763 20.7783 49.7672 20.2286 48.9554L18.7593 46.7854C18.649 46.6225 18.5107 46.4805 18.3509 46.3658L18.2866 46.3196C17.7443 45.9305 17.0143 45.9305 16.472 46.3196V46.3196C16.2709 46.4639 16.1071 46.6541 15.9943 46.8743L14.742 49.3182C14.4375 49.9125 14.2787 50.5707 14.2787 51.2385V51.2385C14.2787 51.762 14.3763 52.2809 14.5665 52.7686L16.2225 57.0146C16.3179 57.2593 16.4765 57.4743 16.6821 57.6377L16.7648 57.7034C17.3074 58.1347 18.0869 58.0915 18.5786 57.603V57.603C18.721 57.4615 18.8304 57.2904 18.8992 57.1019L20.6435 52.321C20.7141 52.1278 20.7684 51.929 20.8061 51.7268Z" stroke="url(#paint0_linear_261_52)" stroke-opacity="0.8" stroke-width="2" stroke-linecap="round"/>
<defs>
<linearGradient id="paint0_linear_261_52" x1="32.5" y1="60" x2="33.5" y2="1" gradientUnits="userSpaceOnUse">
<stop stop-color="#36DAFE"/>
<stop offset="1" stop-color="#D1F5FD"/>
</linearGradient>
</defs>
</svg>
