<svg width="1440" height="132" viewBox="0 0 1440 132" fill="none" xmlns="http://www.w3.org/2000/svg">
<path d="M500.434 67.0758L503.85 18.4767C503.894 17.8397 504.109 17.2262 504.47 16.7C504.972 15.9699 505.727 15.4518 506.589 15.246L506.775 15.2015C507.455 15.0391 508.165 15.0542 508.837 15.2455L508.894 15.2615C509.596 15.4611 510.235 15.8358 510.752 16.3504L510.778 16.3761C511.51 17.105 511.965 18.0663 512.065 19.0947L517.493 74.8904C517.528 75.2527 517.638 75.6039 517.815 75.9218L518.181 76.5776C518.422 77.0087 518.877 77.2758 519.371 77.2758C519.886 77.2758 520.357 76.9853 520.588 76.5252L520.919 75.866C521.06 75.5843 521.148 75.2788 521.179 74.965L525.977 25.5203C526.434 20.8134 527.579 16.199 529.376 11.8246L532.937 3.15224C532.979 3.05156 533 2.94378 533 2.83495V2.83495C533 2.37369 532.626 1.99977 532.165 1.99977L460.635 1.99979C460.131 1.99979 459.804 2.52987 460.03 2.9797V2.9797C460.037 2.99308 460.043 3.00511 460.051 3.01801C460.285 3.41551 464.267 10.1874 464.797 11.1021L464.942 11.3524C465.306 11.9799 465.55 12.6693 465.662 13.3858L466.004 15.5658M499.922 74.4198L498.007 101.609C497.986 101.906 497.886 102.191 497.718 102.435C497.148 103.264 495.979 103.402 495.232 102.729L495.054 102.569C494.693 102.244 494.472 101.791 494.439 101.305L488.557 16.068C488.485 15.0185 488.047 14.0275 487.32 13.2673L487.135 13.0746C486.653 12.5703 486.034 12.217 485.354 12.0579C484.892 11.9495 484.413 11.9338 483.944 12.0115L483.827 12.0309C482.785 12.2038 481.861 12.7994 481.274 13.6768C480.936 14.1809 480.723 14.758 480.652 15.3606L475.206 61.7908C475.153 62.2408 474.949 62.6598 474.628 62.9794C473.915 63.6894 472.786 63.7614 471.989 63.1478L471.865 63.0528C471.394 62.6905 471.091 62.152 471.025 61.5614L466.619 21.7878M0 1.99977H1440M1199 1.99977L1202.98 2.65115C1204.73 2.93612 1206.41 3.48325 1207.99 4.27395C1209.81 5.1838 1211.45 6.40315 1212.85 7.87733L1213.56 8.6243C1215.09 10.2345 1216.34 12.0821 1217.28 14.0949C1218.13 15.9332 1218.71 17.888 1218.99 19.8955L1224.11 56.6748C1224.21 57.3517 1225.07 57.5794 1225.49 57.037L1229.81 51.4013C1230.05 51.0871 1230.32 50.8006 1230.63 50.547L1230.78 50.4145C1231.93 49.4577 1233.45 49.0718 1234.91 49.3651C1236.03 49.5895 1237.04 50.1959 1237.76 51.0806L1238.07 51.4553C1238.73 52.2629 1239.18 53.222 1239.37 54.2461L1242.31 69.5811M1244.07 79.448L1253.6 129.114C1253.81 130.223 1255.41 130.185 1255.57 129.067L1269.41 31.6314C1269.51 30.8965 1269.76 30.188 1270.12 29.5432L1270.28 29.2734C1270.87 28.2447 1271.8 27.4559 1272.91 27.0458L1272.93 27.0363C1273.47 26.8367 1274.05 26.7345 1274.62 26.7345C1275.8 26.7345 1276.94 27.1608 1277.83 27.9345L1278.07 28.1427C1279.03 28.9819 1279.68 30.1192 1279.93 31.3737L1280.36 33.6278L1282.12 41.8727L1288.91 72.7523C1289.15 73.8103 1290.66 73.7944 1290.87 72.7319L1297.9 37.2772M1298.98 29.4378L1300.29 22.0237C1300.68 19.8572 1301.34 17.7504 1302.27 15.7572C1303.31 13.5359 1304.67 11.4782 1306.3 9.64961L1306.69 9.21859C1307.84 7.92447 1309.14 6.76598 1310.56 5.76544L1311.63 5.01078C1313.43 3.73734 1315.48 2.84015 1317.64 2.37266C1318.78 2.12478 1319.95 1.99977 1321.12 1.99977H1323M210.972 1.99977H213M210.972 1.99977L209.078 8.38461C208.8 9.32313 208.291 10.1772 207.599 10.869C206.836 11.6308 205.878 12.168 204.831 12.4217L204.601 12.4774C203.707 12.6939 202.778 12.7244 201.871 12.5669L198.803 12.0338M210.972 1.99977H119.318M198.803 12.0338L197.837 14.7353L196.775 18.5946L194.94 23.7081L193.974 27.0849L192.718 32.8738M198.803 12.0338C195.59 11.4561 192.313 11.1655 189.048 11.1655M191.463 39.338L190.497 44.9339L190.144 46.8143C190.003 47.566 189.487 48.1933 188.777 48.477C188.268 48.6806 187.701 48.6896 187.185 48.5023L187.077 48.4628C186.313 48.1855 185.728 47.5593 185.504 46.7785L176.61 15.8154C176.414 15.1324 175.919 14.5751 175.264 14.2996C174.748 14.0827 174.172 14.0571 173.639 14.2274L173.573 14.2486C172.643 14.546 171.966 15.3513 171.833 16.319L171.085 21.7784L164.188 84.263C164.15 84.6021 164.024 84.9252 163.821 85.1994C163.119 86.1477 161.739 86.2506 160.905 85.417L160.792 85.3042C160.453 84.9658 160.242 84.5201 160.195 84.0435L156.501 46.4776M155.728 39.338L153.978 21.7641C153.924 21.2204 153.642 20.7252 153.202 20.4013C152.522 19.9005 151.595 19.9005 150.915 20.4013L150.84 20.456C150.442 20.7489 150.163 21.1753 150.054 21.6572L142.352 55.6772C142.258 56.0954 142.041 56.4759 141.729 56.7701C140.993 57.4646 139.873 57.5541 139.036 56.9855L138.946 56.9245C138.381 56.5408 138.017 55.9253 137.952 55.2456L136.745 42.58C136.588 40.9362 136.293 39.3085 135.862 37.7143L132.549 25.4447M130.907 18.5946L129.555 12.8057M129.555 12.8057H127.713C126.333 12.8057 124.985 12.3911 123.844 11.6157C123.403 11.3166 122.999 10.9674 122.639 10.5752L122.51 10.4343C121.556 9.39434 120.875 8.13378 120.527 6.76567L119.318 1.99977M129.555 12.8057C132.753 11.7196 136.107 11.1655 139.484 11.1655H142.207M117 1.99977H119.318M475.601 77.7956C476.664 76.5789 476.625 74.7493 475.508 73.582C474.329 72.3495 472.376 72.2948 471.126 73.4559C469.838 74.6526 469.789 76.6794 471.021 77.9334C472.295 79.2296 474.406 79.1643 475.601 77.7956ZM1289.94 96.2081L1282.98 107.591C1282.23 108.825 1281.68 110.173 1281.36 111.582L1281.22 112.179C1280.92 113.503 1280.89 114.874 1281.12 116.212L1281.22 116.818C1281.37 117.668 1281.67 118.484 1282.11 119.224C1282.47 119.826 1282.92 120.37 1283.44 120.838L1284.21 121.521C1284.88 122.122 1285.65 122.605 1286.48 122.949C1287.16 123.232 1287.89 123.418 1288.63 123.5L1289.94 123.646C1290.82 123.646 1292.79 123.204 1293.6 122.869C1294.3 122.578 1294.95 122.17 1295.52 121.661L1296.44 120.837C1296.96 120.37 1297.41 119.826 1297.77 119.225C1298.22 118.484 1298.52 117.668 1298.66 116.817L1298.77 116.212C1299 114.874 1298.96 113.503 1298.66 112.179L1298.52 111.582C1298.2 110.173 1297.65 108.825 1296.9 107.593L1289.94 96.2081ZM141.771 67.2922L141.863 67.3584C142.091 67.5229 142.288 67.7264 142.445 67.9596L144.55 71.0854C145.339 72.2571 145.636 73.6916 145.379 75.0806C145.325 75.372 145.247 75.6585 145.146 75.9372L142.645 82.8279C142.548 83.0974 142.392 83.342 142.189 83.5446C141.484 84.2485 140.363 84.3106 139.585 83.6888L139.467 83.5946C139.174 83.3604 138.949 83.0528 138.813 82.7031L136.439 76.5823C136.166 75.8792 136.026 75.1316 136.026 74.3775C136.026 73.4152 136.254 72.4665 136.691 71.6092L138.486 68.0865C138.647 67.7714 138.88 67.4991 139.167 67.2922C139.944 66.7313 140.993 66.7313 141.771 67.2922Z" stroke="url(#paint0_linear_262_149)" stroke-width="4" stroke-linecap="round"/>
<path d="M500.434 67.0758L503.85 18.4767C503.894 17.8397 504.109 17.2262 504.47 16.7C504.972 15.9699 505.727 15.4518 506.589 15.246L506.775 15.2015C507.455 15.0391 508.165 15.0542 508.837 15.2455L508.894 15.2615C509.596 15.4611 510.235 15.8358 510.752 16.3504L510.778 16.3761C511.51 17.105 511.965 18.0663 512.065 19.0947L517.493 74.8904C517.528 75.2527 517.638 75.6039 517.815 75.9218L518.181 76.5776C518.422 77.0087 518.877 77.2758 519.371 77.2758C519.886 77.2758 520.357 76.9853 520.588 76.5252L520.919 75.866C521.06 75.5843 521.148 75.2788 521.179 74.965L525.977 25.5203C526.434 20.8134 527.579 16.199 529.376 11.8246L532.937 3.15224C532.979 3.05156 533 2.94378 533 2.83495V2.83495C533 2.37369 532.626 1.99977 532.165 1.99977L460.635 1.99979C460.131 1.99979 459.804 2.52987 460.03 2.9797V2.9797C460.037 2.99308 460.043 3.00511 460.051 3.01801C460.285 3.41551 464.267 10.1874 464.797 11.1021L464.942 11.3524C465.306 11.9799 465.55 12.6693 465.662 13.3858L466.004 15.5658M499.922 74.4198L498.007 101.609C497.986 101.906 497.886 102.191 497.718 102.435C497.148 103.264 495.979 103.402 495.232 102.729L495.054 102.569C494.693 102.244 494.472 101.791 494.439 101.305L488.557 16.068C488.485 15.0185 488.047 14.0275 487.32 13.2673L487.135 13.0746C486.653 12.5703 486.034 12.217 485.354 12.0579C484.892 11.9495 484.413 11.9338 483.944 12.0115L483.827 12.0309C482.785 12.2038 481.861 12.7994 481.274 13.6768C480.936 14.1809 480.723 14.758 480.652 15.3606L475.206 61.7908C475.153 62.2408 474.949 62.6598 474.628 62.9794C473.915 63.6894 472.786 63.7614 471.989 63.1478L471.865 63.0528C471.394 62.6905 471.091 62.152 471.025 61.5614L466.619 21.7878M0 1.99977H1440M1199 1.99977L1202.98 2.65115C1204.73 2.93612 1206.41 3.48325 1207.99 4.27395C1209.81 5.1838 1211.45 6.40315 1212.85 7.87733L1213.56 8.6243C1215.09 10.2345 1216.34 12.0821 1217.28 14.0949C1218.13 15.9332 1218.71 17.888 1218.99 19.8955L1224.11 56.6748C1224.21 57.3517 1225.07 57.5794 1225.49 57.037L1229.81 51.4013C1230.05 51.0871 1230.32 50.8006 1230.63 50.547L1230.78 50.4145C1231.93 49.4577 1233.45 49.0718 1234.91 49.3651C1236.03 49.5895 1237.04 50.1959 1237.76 51.0806L1238.07 51.4553C1238.73 52.2629 1239.18 53.222 1239.37 54.2461L1242.31 69.5811M1244.07 79.448L1253.6 129.114C1253.81 130.223 1255.41 130.185 1255.57 129.067L1269.41 31.6314C1269.51 30.8965 1269.76 30.188 1270.12 29.5432L1270.28 29.2734C1270.87 28.2447 1271.8 27.4559 1272.91 27.0458L1272.93 27.0363C1273.47 26.8367 1274.05 26.7345 1274.62 26.7345C1275.8 26.7345 1276.94 27.1608 1277.83 27.9345L1278.07 28.1427C1279.03 28.9819 1279.68 30.1192 1279.93 31.3737L1280.36 33.6278L1282.12 41.8727L1288.91 72.7523C1289.15 73.8103 1290.66 73.7944 1290.87 72.7319L1297.9 37.2772M1298.98 29.4378L1300.29 22.0237C1300.68 19.8572 1301.34 17.7504 1302.27 15.7572C1303.31 13.5359 1304.67 11.4782 1306.3 9.64961L1306.69 9.21859C1307.84 7.92447 1309.14 6.76598 1310.56 5.76544L1311.63 5.01078C1313.43 3.73734 1315.48 2.84015 1317.64 2.37266C1318.78 2.12478 1319.95 1.99977 1321.12 1.99977H1323M210.972 1.99977H213M210.972 1.99977L209.078 8.38461C208.8 9.32313 208.291 10.1772 207.599 10.869C206.836 11.6308 205.878 12.168 204.831 12.4217L204.601 12.4774C203.707 12.6939 202.778 12.7244 201.871 12.5669L198.803 12.0338M210.972 1.99977H119.318M198.803 12.0338L197.837 14.7353L196.775 18.5946L194.94 23.7081L193.974 27.0849L192.718 32.8738M198.803 12.0338C195.59 11.4561 192.313 11.1655 189.048 11.1655M191.463 39.338L190.497 44.9339L190.144 46.8143C190.003 47.566 189.487 48.1933 188.777 48.477C188.268 48.6806 187.701 48.6896 187.185 48.5023L187.077 48.4628C186.313 48.1855 185.728 47.5593 185.504 46.7785L176.61 15.8154C176.414 15.1324 175.919 14.5751 175.264 14.2996C174.748 14.0827 174.172 14.0571 173.639 14.2274L173.573 14.2486C172.643 14.546 171.966 15.3513 171.833 16.319L171.085 21.7784L164.188 84.263C164.15 84.6021 164.024 84.9252 163.821 85.1994C163.119 86.1477 161.739 86.2506 160.905 85.417L160.792 85.3042C160.453 84.9658 160.242 84.5201 160.195 84.0435L156.501 46.4776M155.728 39.338L153.978 21.7641C153.924 21.2204 153.642 20.7252 153.202 20.4013C152.522 19.9005 151.595 19.9005 150.915 20.4013L150.84 20.456C150.442 20.7489 150.163 21.1753 150.054 21.6572L142.352 55.6772C142.258 56.0954 142.041 56.4759 141.729 56.7701C140.993 57.4646 139.873 57.5541 139.036 56.9855L138.946 56.9245C138.381 56.5408 138.017 55.9253 137.952 55.2456L136.745 42.58C136.588 40.9362 136.293 39.3085 135.862 37.7143L132.549 25.4447M130.907 18.5946L129.555 12.8057M129.555 12.8057H127.713C126.333 12.8057 124.985 12.3911 123.844 11.6157C123.403 11.3166 122.999 10.9674 122.639 10.5752L122.51 10.4343C121.556 9.39434 120.875 8.13378 120.527 6.76567L119.318 1.99977M129.555 12.8057C132.753 11.7196 136.107 11.1655 139.484 11.1655H142.207M117 1.99977H119.318M475.601 77.7956C476.664 76.5789 476.625 74.7493 475.508 73.582C474.329 72.3495 472.376 72.2948 471.126 73.4559C469.838 74.6526 469.789 76.6794 471.021 77.9334C472.295 79.2296 474.406 79.1643 475.601 77.7956ZM1289.94 96.2081L1282.98 107.591C1282.23 108.825 1281.68 110.173 1281.36 111.582L1281.22 112.179C1280.92 113.503 1280.89 114.874 1281.12 116.212L1281.22 116.818C1281.37 117.668 1281.67 118.484 1282.11 119.224C1282.47 119.826 1282.92 120.37 1283.44 120.838L1284.21 121.521C1284.88 122.122 1285.65 122.605 1286.48 122.949C1287.16 123.232 1287.89 123.418 1288.63 123.5L1289.94 123.646C1290.82 123.646 1292.79 123.204 1293.6 122.869C1294.3 122.578 1294.95 122.17 1295.52 121.661L1296.44 120.837C1296.96 120.37 1297.41 119.826 1297.77 119.225C1298.22 118.484 1298.52 117.668 1298.66 116.817L1298.77 116.212C1299 114.874 1298.96 113.503 1298.66 112.179L1298.52 111.582C1298.2 110.173 1297.65 108.825 1296.9 107.593L1289.94 96.2081ZM141.771 67.2922L141.863 67.3584C142.091 67.5229 142.288 67.7264 142.445 67.9596L144.55 71.0854C145.339 72.2571 145.636 73.6916 145.379 75.0806C145.325 75.372 145.247 75.6585 145.146 75.9372L142.645 82.8279C142.548 83.0974 142.392 83.342 142.189 83.5446C141.484 84.2485 140.363 84.3106 139.585 83.6888L139.467 83.5946C139.174 83.3604 138.949 83.0528 138.813 82.7031L136.439 76.5823C136.166 75.8792 136.026 75.1316 136.026 74.3775C136.026 73.4152 136.254 72.4665 136.691 71.6092L138.486 68.0865C138.647 67.7714 138.88 67.4991 139.167 67.2922C139.944 66.7313 140.993 66.7313 141.771 67.2922Z" stroke="url(#paint1_linear_262_149)" stroke-opacity="0.4" stroke-width="4" stroke-linecap="round"/>
<defs>
<linearGradient id="paint0_linear_262_149" x1="162.134" y1="86.9998" x2="163.583" y2="2.00003" gradientUnits="userSpaceOnUse">
<stop stop-color="#36DAFE"/>
<stop offset="1" stop-color="#D1F5FD"/>
</linearGradient>
<linearGradient id="paint1_linear_262_149" x1="1440" y1="1.99976" x2="0" y2="1.99976" gradientUnits="userSpaceOnUse">
<stop offset="0.354167" stop-color="#00D1FF"/>
<stop offset="1" stop-opacity="0"/>
<stop offset="1" stop-color="white"/>
</linearGradient>
</defs>
</svg>
