<svg width="104" height="78" viewBox="0 0 104 78" fill="none" xmlns="http://www.w3.org/2000/svg">
    <path d="M49.8324 32.5001H58.4991C59.0737 32.5001 59.6248 32.2718 60.0312 31.8655C60.4375 31.4592 60.6658 30.908 60.6658 30.3334C60.6658 29.7588 60.4375 29.2077 60.0312 28.8014C59.6248 28.395 59.0737 28.1667 58.4991 28.1667H54.1658V26.0001C54.1658 25.4254 53.9375 24.8743 53.5312 24.468C53.1248 24.0617 52.5737 23.8334 51.9991 23.8334C51.4245 23.8334 50.8734 24.0617 50.4671 24.468C50.0607 24.8743 49.8324 25.4254 49.8324 26.0001V28.1667C48.1085 28.1667 46.4552 28.8516 45.2363 30.0706C44.0173 31.2895 43.3324 32.9428 43.3324 34.6667C43.3324 36.3907 44.0173 38.044 45.2363 39.2629C46.4552 40.4819 48.1085 41.1667 49.8324 41.1667H54.1658C54.7404 41.1667 55.2915 41.395 55.6978 41.8013C56.1042 42.2077 56.3324 42.7588 56.3324 43.3334C56.3324 43.9081 56.1042 44.4592 55.6978 44.8655C55.2915 45.2718 54.7404 45.5001 54.1658 45.5001H45.4991C44.9245 45.5001 44.3734 45.7284 43.9671 46.1347C43.5607 46.541 43.3324 47.0921 43.3324 47.6667C43.3324 48.2414 43.5607 48.7925 43.9671 49.1988C44.3734 49.6051 44.9245 49.8334 45.4991 49.8334H49.8324V52.0001C49.8324 52.5747 50.0607 53.1258 50.4671 53.5321C50.8734 53.9385 51.4245 54.1667 51.9991 54.1667C52.5737 54.1667 53.1248 53.9385 53.5312 53.5321C53.9375 53.1258 54.1658 52.5747 54.1658 52.0001V49.8334C55.8897 49.8334 57.543 49.1486 58.762 47.9296C59.981 46.7106 60.6658 45.0573 60.6658 43.3334C60.6658 41.6095 59.981 39.9562 58.762 38.7372C57.543 37.5182 55.8897 36.8334 54.1658 36.8334H49.8324C49.2578 36.8334 48.7067 36.6051 48.3004 36.1988C47.8941 35.7925 47.6658 35.2414 47.6658 34.6667C47.6658 34.0921 47.8941 33.541 48.3004 33.1347C48.7067 32.7284 49.2578 32.5001 49.8324 32.5001ZM51.9991 15.1667C47.2853 15.1667 42.6774 16.5645 38.758 19.1834C34.8387 21.8022 31.7839 25.5245 29.98 29.8795C28.1761 34.2344 27.7041 39.0265 28.6237 43.6497C29.5433 48.2729 31.8133 52.5196 35.1464 55.8528C38.4796 59.1859 42.7262 61.4558 47.3495 62.3755C51.9727 63.2951 56.7648 62.8231 61.1197 61.0192C65.4747 59.2153 69.197 56.1605 71.8158 52.2412C74.4347 48.3218 75.8325 43.7139 75.8325 39.0001C75.8325 32.6791 73.3214 26.617 68.8518 22.1474C64.3822 17.6778 58.3201 15.1667 51.9991 15.1667ZM51.9991 58.5001C48.1424 58.5001 44.3723 57.3564 41.1655 55.2137C37.9587 53.071 35.4594 50.0256 33.9835 46.4624C32.5076 42.8992 32.1214 38.9784 32.8738 35.1958C33.6262 31.4132 35.4834 27.9386 38.2105 25.2115C40.9377 22.4844 44.4122 20.6272 48.1949 19.8748C51.9775 19.1224 55.8983 19.5085 59.4614 20.9844C63.0246 22.4603 66.0701 24.9597 68.2128 28.1665C70.3555 31.3732 71.4991 35.1433 71.4991 39.0001C71.4991 44.1718 69.4447 49.1317 65.7877 52.7887C62.1307 56.4456 57.1708 58.5001 51.9991 58.5001Z" fill="white"/>
    <path d="M78.0898 70.0908L72.0898 64.0908L78.0898 58.0908" stroke="white" stroke-width="4" stroke-linecap="round" stroke-linejoin="round"/>
    <path d="M91.7273 55.0908V58.0908C91.7273 59.6821 91.2676 61.2082 90.4492 62.3335C89.6309 63.4587 88.521 64.0908 87.3637 64.0908H72.0909" stroke="white" stroke-width="4" stroke-linecap="round" stroke-linejoin="round"/>
    <path d="M25.9102 7.90918L31.9102 13.9092L25.9102 19.9092" stroke="white" stroke-width="4" stroke-linecap="round" stroke-linejoin="round"/>
    <path d="M12.2727 22.9092V19.9092C12.2727 18.3179 12.7324 16.7918 13.5508 15.6665C14.3691 14.5413 15.479 13.9092 16.6363 13.9092H31.9091" stroke="white" stroke-width="4" stroke-linecap="round" stroke-linejoin="round"/>
</svg>
