<svg width="77" height="77" viewBox="0 0 77 77" fill="none" xmlns="http://www.w3.org/2000/svg">
    <path d="M38.4999 70.5834C38.4999 70.5834 64.1666 57.7501 64.1666 38.5001V16.0417L38.4999 6.41675L12.8333 16.0417V38.5001C12.8333 57.7501 38.4999 70.5834 38.4999 70.5834Z" stroke="white" stroke-width="3" stroke-linecap="round" stroke-linejoin="round"/>
    <path d="M48.2412 25.5218C46.5416 24.7419 44.719 24.1674 42.8133 23.8383C42.7786 23.8319 42.7439 23.8478 42.7261 23.8796C42.4916 24.2965 42.232 24.8404 42.0502 25.2678C40.0005 24.961 37.9614 24.961 35.9538 25.2678C35.7719 24.8309 35.5028 24.2965 35.2674 23.8796C35.2495 23.8489 35.2148 23.833 35.1801 23.8383C33.2755 24.1663 31.4529 24.7409 29.7522 25.5218C29.7375 25.5282 29.7249 25.5388 29.7165 25.5525C26.2594 30.7173 25.3124 35.7552 25.7769 40.7307C25.7791 40.755 25.7927 40.7783 25.8116 40.7931C28.0925 42.4681 30.302 43.4851 32.4704 44.1591C32.5051 44.1697 32.5419 44.157 32.5639 44.1284C33.0769 43.4279 33.5341 42.6893 33.9262 41.9126C33.9493 41.8671 33.9272 41.8132 33.8799 41.7952C33.1547 41.5201 32.4641 41.1846 31.7998 40.8037C31.7472 40.773 31.743 40.6979 31.7914 40.6619C31.9312 40.5571 32.071 40.4481 32.2045 40.3381C32.2286 40.318 32.2623 40.3137 32.2907 40.3264C36.6548 42.319 41.3796 42.319 45.6922 40.3264C45.7206 40.3127 45.7543 40.3169 45.7795 40.337C45.913 40.4471 46.0528 40.5571 46.1937 40.6619C46.242 40.6979 46.2388 40.773 46.1863 40.8037C45.522 41.192 44.8314 41.5201 44.1051 41.7941C44.0578 41.8121 44.0368 41.8671 44.0599 41.9126C44.4604 42.6882 44.9176 43.4268 45.4211 44.1273C45.4421 44.157 45.4799 44.1697 45.5146 44.1591C47.6936 43.4851 49.903 42.4681 52.1839 40.7931C52.2039 40.7783 52.2165 40.7561 52.2186 40.7317C52.7746 34.9796 51.2873 29.983 48.2759 25.5536C48.2685 25.5388 48.2559 25.5282 48.2412 25.5218ZM34.5779 37.7012C33.264 37.7012 32.1813 36.4949 32.1813 35.0135C32.1813 33.532 33.243 32.3258 34.5779 32.3258C35.9233 32.3258 36.9954 33.5426 36.9744 35.0135C36.9744 36.4949 35.9128 37.7012 34.5779 37.7012ZM43.4387 37.7012C42.1248 37.7012 41.0422 36.4949 41.0422 35.0135C41.0422 33.532 42.1038 32.3258 43.4387 32.3258C44.7841 32.3258 45.8562 33.5426 45.8352 35.0135C45.8352 36.4949 44.7841 37.7012 43.4387 37.7012Z" fill="white"/>
</svg>
